<svg width="24" height="25" viewBox="0 0 24 25" fill="none" xmlns="http://www.w3.org/2000/svg">
<path d="M22.9619 6.45842C22.7033 5.49793 21.946 4.74063 20.9855 4.48204C19.2307 4.02026 12.2118 4.02026 12.2118 4.02026C12.2118 4.02026 5.19289 4.02026 3.43815 4.48204C2.47767 4.74063 1.72036 5.49793 1.46177 6.45842C1 8.21315 1 11.8519 1 11.8519C1 11.8519 1 15.5091 1.46177 17.2454C1.72036 18.2059 2.47767 18.9632 3.43815 19.2218C5.19289 19.6836 12.2118 19.6836 12.2118 19.6836C12.2118 19.6836 19.2307 19.6836 20.9855 19.2218C21.946 18.9632 22.7033 18.2059 22.9619 17.2454C23.4236 15.4907 23.4236 11.8519 23.4236 11.8519C23.4236 11.8519 23.4236 8.21315 22.9619 6.45842Z" fill="black"/>
<path d="M15.7958 11.8704L9.95898 8.49023V15.2321L15.7958 11.8704Z" fill="white"/>
</svg>
