<svg width="24" height="25" viewBox="0 0 24 25" fill="none" xmlns="http://www.w3.org/2000/svg">
<path d="M17.6272 4.15015H6.3728C5.74401 4.15184 5.14146 4.40237 4.69684 4.84699C4.25222 5.29161 4.00169 5.89416 4 6.52295V17.7773C4.00169 18.4061 4.25222 19.0087 4.69684 19.4533C5.14146 19.8979 5.74401 20.1485 6.3728 20.1501H17.6272C18.256 20.1485 18.8585 19.8979 19.3032 19.4533C19.7478 19.0087 19.9983 18.4061 20 17.7773V6.52295C19.9983 5.89416 19.7478 5.29161 19.3032 4.84699C18.8585 4.40237 18.256 4.15184 17.6272 4.15015V4.15015ZM18.6672 17.7773C18.6672 18.0532 18.5576 18.3177 18.3626 18.5127C18.1676 18.7078 17.903 18.8173 17.6272 18.8173H6.3728C6.09697 18.8173 5.83245 18.7078 5.63741 18.5127C5.44237 18.3177 5.3328 18.0532 5.3328 17.7773V6.52295C5.3328 6.24712 5.44237 5.98259 5.63741 5.78756C5.83245 5.59252 6.09697 5.48295 6.3728 5.48295H17.6272C17.903 5.48295 18.1676 5.59252 18.3626 5.78756C18.5576 5.98259 18.6672 6.24712 18.6672 6.52295V17.7773Z" fill="black"/>
<path d="M12 8.15015C11.2089 8.15015 10.4355 8.38474 9.77772 8.82427C9.11992 9.26379 8.60723 9.88851 8.30448 10.6194C8.00173 11.3503 7.92252 12.1546 8.07686 12.9305C8.2312 13.7064 8.61216 14.4192 9.17157 14.9786C9.73098 15.538 10.4437 15.9189 11.2196 16.0733C11.9956 16.2276 12.7998 16.1484 13.5307 15.8457C14.2616 15.5429 14.8864 15.0302 15.3259 14.3724C15.7654 13.7146 16 12.9413 16 12.1501C16 11.0893 15.5786 10.0719 14.8284 9.32172C14.0783 8.57157 13.0609 8.15015 12 8.15015ZM12 14.8173C11.4725 14.8173 10.9568 14.6609 10.5182 14.3678C10.0796 14.0748 9.7377 13.6582 9.53583 13.1708C9.33396 12.6835 9.28114 12.1472 9.38405 11.6298C9.48697 11.1124 9.74099 10.6372 10.114 10.2642C10.487 9.89114 10.9623 9.63711 11.4797 9.5342C11.997 9.43128 12.5333 9.4841 13.0207 9.68597C13.5081 9.88785 13.9246 10.2297 14.2177 10.6683C14.5108 11.1069 14.6672 11.6226 14.6672 12.1501C14.6668 12.8574 14.3856 13.5356 13.8855 14.0357C13.3854 14.5358 12.7073 14.8169 12 14.8173Z" fill="black"/>
<path d="M16 9.15015C16.5523 9.15015 17 8.70243 17 8.15015C17 7.59786 16.5523 7.15015 16 7.15015C15.4477 7.15015 15 7.59786 15 8.15015C15 8.70243 15.4477 9.15015 16 9.15015Z" fill="black"/>
</svg>
