<svg width="24" height="25" viewBox="0 0 24 25" fill="none" xmlns="http://www.w3.org/2000/svg">
<path d="M18.2041 8.10374C18.8571 7.62294 19.3469 6.98187 19.6735 6.18053C19.0204 6.66133 18.3673 6.98187 17.551 6.98187C16.898 6.3408 16.0816 6.02026 15.102 6.02026C14.1224 6.02026 13.4694 6.3408 12.8163 6.98187C12.1633 7.62294 11.8367 8.42428 11.8367 9.22562C11.8367 9.54615 11.8367 9.70642 11.8367 10.027C10.5306 9.86669 9.38775 9.54615 8.08163 9.06535C6.77551 8.58454 5.95918 7.62294 5.14286 6.66133C4.81633 7.14214 4.65306 7.62294 4.65306 8.26401C4.65306 8.74481 4.81633 9.38588 4.97959 9.86669C5.30612 10.1872 5.63265 10.668 6.12245 10.9886C5.63265 10.9886 5.14286 10.8283 4.65306 10.5078C4.65306 11.3091 4.97959 11.9502 5.46939 12.5912C5.95918 13.2323 6.61224 13.5528 7.26531 13.7131C6.93878 13.7131 6.61224 13.8734 6.44898 13.8734C6.28571 13.8734 6.12245 13.8734 5.79592 13.8734C5.95918 14.5144 6.44898 14.9952 6.93878 15.4761C7.59184 15.7966 8.2449 15.9569 8.89796 16.1171C7.7551 16.9185 6.28571 17.3993 4.81633 17.3993C4.4898 17.3993 4.32653 17.3993 4 17.3993C5.46939 18.3609 7.26531 18.8417 9.06122 18.8417C10.2041 18.8417 11.3469 18.6814 12.3265 18.3609C13.3061 18.0403 14.2857 17.5595 14.9388 16.9185C15.5918 16.2774 16.2449 15.6363 16.898 14.835C17.3878 14.0336 17.8776 13.2323 18.0408 12.2707C18.3673 11.4694 18.3673 10.5078 18.3673 9.70642C18.3673 9.54615 18.3673 9.38588 18.3673 9.22562C19.0204 8.74481 19.5102 8.26401 20 7.62294C19.5102 7.78321 18.8571 7.94347 18.2041 8.10374Z" fill="black"/>
</svg>
