<svg width="24" height="25" viewBox="0 0 24 25" fill="none" xmlns="http://www.w3.org/2000/svg">
<path d="M12.0062 4.02581C14.2759 4.02581 16.5456 4.0383 18.8153 4.02581C19.4263 4.02581 19.9127 4.45033 19.9875 4.98723C20 5.04966 20 5.11209 20 5.16203C20 9.73187 20 14.3142 20 18.884C20 19.4959 19.5136 19.9953 18.915 20.0203C18.8776 20.0203 18.8402 20.0203 18.7903 20.0203C14.2634 20.0203 9.73656 20.0203 5.19719 20.0203C4.62354 20.0203 4.19953 19.7206 4.04988 19.1962C4.01247 19.0838 4 18.9714 4 18.8591C4 14.3017 4 9.74436 4 5.17452C4.01247 4.53774 4.49883 4.0383 5.14731 4.02581C5.69603 4.01333 6.24474 4.02581 6.79345 4.02581C8.52689 4.02581 10.2728 4.02581 12.0062 4.02581ZM12.5425 11.0054C12.5425 10.7307 12.53 10.4561 12.5425 10.1814C12.5425 10.044 12.5051 10.0066 12.3679 10.0066C11.7194 10.019 11.0709 10.0066 10.4224 10.0066C10.2229 10.0066 10.2229 10.0066 10.2229 10.2063C10.2229 12.6411 10.2229 15.0758 10.2229 17.4981C10.2229 17.6479 10.2728 17.6979 10.4224 17.6979C11.0959 17.6854 11.7693 17.6979 12.4427 17.6979C12.6422 17.6979 12.6422 17.6979 12.6422 17.4981C12.6422 16.2745 12.6422 15.0509 12.6422 13.8273C12.6422 13.5775 12.6547 13.3153 12.7046 13.0656C12.7919 12.5537 13.0413 12.1292 13.59 11.9918C13.7521 11.9544 13.9392 11.9419 14.1013 11.9419C14.675 11.9544 15.0242 12.2166 15.1489 12.7659C15.2237 13.0781 15.2486 13.4027 15.2486 13.7149C15.2611 14.976 15.2611 16.237 15.2486 17.4856C15.2486 17.6355 15.2985 17.6854 15.4482 17.6854C16.1216 17.6729 16.795 17.6729 17.4684 17.6854C17.6181 17.6854 17.668 17.6479 17.668 17.4981C17.668 16.0373 17.6804 14.5764 17.6555 13.128C17.643 12.6411 17.5807 12.1541 17.4684 11.6797C17.2689 10.8306 16.7825 10.2063 15.9096 9.96911C15.6103 9.8817 15.2985 9.86922 14.9867 9.83176C14.463 9.76933 13.9641 9.8817 13.5027 10.1314C13.1161 10.3312 12.8044 10.6433 12.5425 11.0054ZM6.35698 13.8522C6.35698 15.0758 6.35698 16.2995 6.35698 17.5231C6.35698 17.6479 6.38192 17.6979 6.5191 17.6979C7.21746 17.6979 7.91582 17.6979 8.61419 17.6979C8.73889 17.6979 8.77631 17.6479 8.77631 17.5356C8.77631 15.0883 8.77631 12.6286 8.77631 10.1814C8.77631 10.044 8.72642 10.019 8.60171 10.019C7.91582 10.019 7.22993 10.0315 6.53157 10.019C6.38192 10.019 6.34451 10.069 6.34451 10.2063C6.35698 11.4175 6.35698 12.6286 6.35698 13.8522ZM7.55417 8.98272C8.32736 8.98272 8.93843 8.37091 8.9509 7.60927C8.9509 6.83514 8.33983 6.21085 7.56664 6.21085C6.79345 6.21085 6.18238 6.82266 6.18238 7.60927C6.16991 8.37091 6.79345 8.98272 7.55417 8.98272Z" fill="black"/>
</svg>
