<svg width="24" height="25" viewBox="0 0 24 25" fill="none" xmlns="http://www.w3.org/2000/svg">
<path fill-rule="evenodd" clip-rule="evenodd" d="M5 4.02441C4.44772 4.02441 4 4.47213 4 5.02441V19.0244C4 19.5767 4.44772 20.0244 5 20.0244H19C19.5523 20.0244 20 19.5767 20 19.0244V5.02441C20 4.47213 19.5523 4.02441 19 4.02441H5ZM16.2331 7.98384C16.3212 8.0419 16.4122 8.09544 16.5056 8.14425C17.1136 8.45077 17.7075 8.5441 18 8.51202V10.8989C18 10.8989 17.1653 10.8639 16.5457 10.6977C15.6822 10.464 15.1286 10.1053 15.1286 10.1053C15.1286 10.1053 14.7445 9.84837 14.7156 9.83087V14.7633C14.7156 15.0374 14.6438 15.7234 14.4286 16.2953C14.2401 16.7844 13.9705 17.2374 13.6314 17.6349C13.6314 17.6349 13.1007 18.3002 12.1685 18.7467C11.3914 19.119 10.7002 19.1394 10.4257 19.1475C10.4032 19.1482 10.3836 19.1488 10.3669 19.1494C10.3669 19.1494 9.09059 19.2014 7.9383 18.4104L7.93253 18.4046V18.4104C7.54447 18.1359 7.19832 17.8054 6.90513 17.4293C6.54084 16.9594 6.31731 16.4021 6.25962 16.2388V16.2329C6.16646 15.9541 5.97407 15.283 6.00292 14.6353C6.04878 13.494 6.42749 12.7914 6.52786 12.6164C6.79168 12.1364 7.13622 11.7066 7.54603 11.3463C8.01379 10.9498 8.55771 10.6557 9.1435 10.4824C9.72928 10.3091 10.3442 10.2605 10.9495 10.3395L10.9467 12.7876C10.7473 12.7219 10.5388 12.6886 10.3291 12.6888C9.22125 12.6888 8.32336 13.6022 8.32336 14.7303C8.32336 15.8584 9.22125 16.7719 10.3291 16.7719C10.6741 16.7724 11.0132 16.6819 11.313 16.5094C11.6006 16.3442 11.8437 16.1099 12.0209 15.8274C12.198 15.5448 12.3038 15.2226 12.3288 14.889V14.8837C12.33 14.8769 12.3305 14.87 12.3303 14.863C12.3306 14.8577 12.3309 14.8526 12.3312 14.8477C12.3319 14.8375 12.3326 14.8278 12.3326 14.8175C12.3378 14.6957 12.3378 14.5723 12.3378 14.4475V14.4474V5.15015H14.7156C14.7107 5.15015 14.6871 5.38055 14.7471 5.73666H14.7442C14.816 6.16568 15.011 6.77844 15.533 7.38245C15.7418 7.6105 15.9768 7.8124 16.2331 7.98384Z" fill="black"/>
</svg>
