<svg width="24" height="25" viewBox="0 0 24 25" fill="none" xmlns="http://www.w3.org/2000/svg">
<path d="M12.1011 19.0342C12.0606 19.0342 12.0202 19.0342 11.9798 19.0292C11.9545 19.0292 11.9293 19.0342 11.8989 19.0342C10.9539 19.0342 10.3424 18.6047 9.75624 18.1903C9.35196 17.9023 8.96789 17.6344 8.51308 17.5586C8.29072 17.5232 8.07342 17.503 7.86118 17.503C7.47711 17.503 7.17895 17.5637 6.9566 17.6041C6.82521 17.6294 6.70898 17.6546 6.61801 17.6546C6.52705 17.6546 6.42598 17.6344 6.38555 17.4879C6.35018 17.3615 6.31985 17.2352 6.29459 17.119C6.22889 16.8107 6.17836 16.6237 6.05202 16.6035C4.55113 16.371 4.12158 16.0527 4.02556 15.8303C4.0104 15.8 4.00535 15.7646 4.00029 15.7343C3.99524 15.6484 4.05588 15.5726 4.14179 15.5574C6.45125 15.1784 7.48722 12.8184 7.5327 12.7174C7.5327 12.7123 7.5327 12.7123 7.53775 12.7072C7.67925 12.4192 7.70452 12.1716 7.61861 11.9694C7.46195 11.5955 6.94144 11.4338 6.60285 11.3226C6.51694 11.2973 6.44114 11.2721 6.37544 11.2468C5.69322 10.9789 5.63763 10.701 5.6629 10.5595C5.70838 10.3169 6.0318 10.1502 6.28953 10.1502C6.36028 10.1502 6.42598 10.1653 6.47651 10.1855C6.78478 10.327 7.06272 10.4028 7.30024 10.4028C7.62871 10.4028 7.77527 10.2664 7.79043 10.2462C7.78032 10.0895 7.77021 9.92782 7.76011 9.756C7.68936 8.66444 7.6085 7.30505 7.95214 6.53186C8.98811 4.20724 11.1864 4.02532 11.8332 4.02532C11.8484 4.02532 12.1162 4.02026 12.1162 4.02026H12.1567C12.8086 4.02026 15.0068 4.20219 16.0428 6.52175C16.3864 7.29494 16.3005 8.65433 16.2348 9.74589L16.2298 9.79137C16.2197 9.94298 16.2096 10.0895 16.2045 10.231C16.2197 10.2462 16.3511 10.3776 16.6543 10.3877C16.8817 10.3776 17.1445 10.3068 17.4275 10.1704C17.5134 10.13 17.6043 10.1249 17.67 10.1249C17.7661 10.1249 17.8671 10.1451 17.948 10.1754H17.953C18.1855 10.2563 18.3371 10.418 18.3422 10.5898C18.3472 10.7515 18.2209 10.9891 17.6246 11.2266C17.5639 11.2518 17.4831 11.2771 17.3971 11.3024C17.0535 11.4135 16.5381 11.5753 16.3814 11.9492C16.2955 12.1514 16.3208 12.404 16.4622 12.687C16.4622 12.6921 16.4673 12.6921 16.4673 12.6971C16.5128 12.7982 17.5437 15.1582 19.8582 15.5372C19.9441 15.5524 20.0048 15.6282 19.9997 15.7141C19.9997 15.7444 19.9896 15.7798 19.9744 15.8101C19.8784 16.0325 19.4489 16.3508 17.948 16.5833C17.8267 16.6035 17.7762 16.7602 17.7054 17.0987C17.6801 17.22 17.6498 17.3413 17.6144 17.4677C17.5841 17.5788 17.5134 17.6294 17.3971 17.6294H17.3769C17.2961 17.6294 17.1849 17.6142 17.0383 17.5889C16.7857 17.5384 16.4976 17.4929 16.1338 17.4929C15.9215 17.4929 15.7042 17.5131 15.4819 17.5485C15.0321 17.6243 14.648 17.8921 14.2438 18.1802C13.6576 18.6047 13.0461 19.0342 12.1011 19.0342Z" fill="black"/>
</svg>
