<svg width="148" height="51" viewBox="0 0 148 51" fill="none" xmlns="http://www.w3.org/2000/svg">
<path d="M0.867188 26V25.7656H3.04688V8.04688H0.867188V7.8125H8.44922C9.76953 7.8125 10.9141 7.88672 11.8828 8.03516C12.8594 8.17578 13.7109 8.41016 14.4375 8.73828C15.1719 9.06641 15.7227 9.51172 16.0898 10.0742C16.4648 10.6367 16.6523 11.3203 16.6523 12.125C16.6523 13.3984 16.0938 14.4023 14.9766 15.1367C13.8672 15.8711 12.3164 16.332 10.3242 16.5195V16.5664C10.7773 16.6133 11.207 16.7188 11.6133 16.8828C12.0273 17.0391 12.3672 17.2031 12.6328 17.375C12.9062 17.5391 13.2266 17.8047 13.5938 18.1719C13.9609 18.5391 14.2266 18.8242 14.3906 19.0273C14.5625 19.2227 14.8438 19.5625 15.2344 20.0469L20.0156 26H15.1641L7.99219 16.8594H7.00781V25.7656H9.45703V26H0.867188ZM7.00781 16.6133H8.30859C9.70703 16.6133 10.7344 16.2344 11.3906 15.4766C12.0547 14.7109 12.3867 13.6602 12.3867 12.3242C12.3867 10.9961 12.0547 9.95312 11.3906 9.19531C10.7266 8.42969 9.69922 8.04688 8.30859 8.04688H7.00781V16.6133ZM20.1094 26V25.7656H22.2891V8.04688H20.1094V7.8125H34.1484L35.2734 13.4492H35.1328L31.2422 8.55078C31.0625 8.33203 30.9062 8.19531 30.7734 8.14062C30.6484 8.07812 30.4375 8.04688 30.1406 8.04688H26.25V16.5664H29.1562C29.3203 16.5664 29.4375 16.5469 29.5078 16.5078C29.5781 16.4609 29.6523 16.3516 29.7305 16.1797L31.1484 13.1328H31.2891V20.2695H31.1484L29.7305 17.2109C29.6523 17.0391 29.5781 16.9297 29.5078 16.8828C29.4375 16.8359 29.3203 16.8125 29.1562 16.8125H26.25V25.7656H31.582C31.8789 25.7656 32.0977 25.7344 32.2383 25.6719C32.3867 25.6094 32.5352 25.4805 32.6836 25.2852L37.1016 19.7305H37.2422L35.5898 26H20.1094ZM45.3984 26.3164C44.5781 26.3164 43.7773 26.207 42.9961 25.9883C42.2148 25.7695 41.6055 25.5 41.168 25.1797L40.0898 26.2344H39.9492L39.0352 19.0625H39.1758C39.9727 21.5547 40.875 23.3516 41.8828 24.4531C42.8906 25.5469 44.0781 26.0938 45.4453 26.0938C46.6797 26.0938 47.6719 25.7852 48.4219 25.168C49.1719 24.5508 49.5469 23.7305 49.5469 22.707C49.5469 21.6914 49.2148 20.8984 48.5508 20.3281C47.8945 19.75 46.8984 19.2656 45.5625 18.875L43.957 18.3945C42.3945 17.9258 41.1914 17.1836 40.3477 16.168C39.5039 15.1523 39.082 13.957 39.082 12.582C39.082 11.7461 39.2617 10.9883 39.6211 10.3086C39.9805 9.62109 40.4531 9.06641 41.0391 8.64453C41.6328 8.21484 42.2891 7.88672 43.0078 7.66016C43.7344 7.42578 44.4805 7.30859 45.2461 7.30859C45.9805 7.30859 46.7031 7.41016 47.4141 7.61328C48.125 7.81641 48.6914 8.09766 49.1133 8.45703L50.1445 7.37891H50.2852L51.1758 14.0938H51.0352C50.4805 12.4531 49.9023 11.1484 49.3008 10.1797C48.6992 9.21094 48.0703 8.52734 47.4141 8.12891C46.7656 7.72266 46.0195 7.51953 45.1758 7.51953C44.1836 7.51953 43.3633 7.79297 42.7148 8.33984C42.0664 8.88672 41.7422 9.62891 41.7422 10.5664C41.7422 11.4883 42.0195 12.2422 42.5742 12.8281C43.1367 13.4062 43.9648 13.8672 45.0586 14.2109L46.6406 14.7148C47.3359 14.9414 47.9531 15.1758 48.4922 15.418C49.0391 15.6602 49.5586 15.9531 50.0508 16.2969C50.543 16.6328 50.9453 17.0039 51.2578 17.4102C51.5781 17.8086 51.832 18.2812 52.0195 18.8281C52.207 19.3672 52.3008 19.957 52.3008 20.5977C52.3008 21.7227 51.9648 22.7305 51.293 23.6211C50.6289 24.5039 49.7734 25.1758 48.7266 25.6367C47.6875 26.0898 46.5781 26.3164 45.3984 26.3164ZM54.2344 26V25.7656H56.4141V8.04688H54.2344V7.8125H62.9883C63.8008 7.8125 64.543 7.84375 65.2148 7.90625C65.8867 7.96094 66.543 8.05469 67.1836 8.1875C67.832 8.32031 68.3984 8.50781 68.8828 8.75C69.375 8.99219 69.8047 9.28516 70.1719 9.62891C70.5469 9.97266 70.832 10.3984 71.0273 10.9062C71.2227 11.4062 71.3203 11.9727 71.3203 12.6055C71.3203 13.7383 70.9727 14.6953 70.2773 15.4766C69.582 16.25 68.6328 16.8164 67.4297 17.1758C66.2266 17.5352 64.8047 17.7148 63.1641 17.7148H61.125V17.4805H63.1406C64.375 17.4805 65.332 17.0547 66.0117 16.2031C66.6992 15.3438 67.043 14.2031 67.043 12.7812C67.043 11.3516 66.6992 10.207 66.0117 9.34766C65.332 8.48047 64.375 8.04688 63.1406 8.04688H60.375V25.7656H63.1641V26H54.2344ZM85.6641 25.918C84.6797 26.1836 83.6719 26.3164 82.6406 26.3164C81.6094 26.3164 80.5977 26.1836 79.6055 25.918C78.6133 25.6445 77.6836 25.2383 76.8164 24.6992C75.957 24.1523 75.1992 23.5039 74.543 22.7539C73.8867 22.0039 73.3672 21.1172 72.9844 20.0938C72.6094 19.0703 72.4219 17.9766 72.4219 16.8125C72.4219 15.6484 72.6094 14.5547 72.9844 13.5312C73.3672 12.5078 73.8867 11.6211 74.543 10.8711C75.1992 10.1211 75.957 9.47656 76.8164 8.9375C77.6836 8.39062 78.6133 7.98438 79.6055 7.71875C80.5977 7.44531 81.6094 7.30859 82.6406 7.30859C83.6719 7.30859 84.6797 7.44531 85.6641 7.71875C86.6562 7.98438 87.5859 8.39062 88.4531 8.9375C89.3203 9.47656 90.0781 10.1211 90.7266 10.8711C91.3828 11.6211 91.8984 12.5078 92.2734 13.5312C92.6562 14.5547 92.8477 15.6484 92.8477 16.8125C92.8477 17.9766 92.6562 19.0703 92.2734 20.0938C91.8984 21.1172 91.3828 22.0039 90.7266 22.7539C90.0781 23.5039 89.3203 24.1523 88.4531 24.6992C87.5859 25.2383 86.6562 25.6445 85.6641 25.918ZM83.7773 25.9766C84.3086 25.9766 84.8203 25.8984 85.3125 25.7422C85.8047 25.5781 86.2656 25.3242 86.6953 24.9805C87.1328 24.6367 87.5078 24.2188 87.8203 23.7266C88.1406 23.2266 88.3945 22.6211 88.582 21.9102C88.7695 21.1914 88.8633 20.4023 88.8633 19.543C88.8633 18.5742 88.7578 17.5508 88.5469 16.4727C88.3359 15.3945 88.0156 14.332 87.5859 13.2852C87.1641 12.2383 86.6641 11.2969 86.0859 10.4609C85.5156 9.61719 84.8281 8.9375 84.0234 8.42188C83.2266 7.89844 82.3828 7.63672 81.4922 7.63672C80.9609 7.63672 80.4492 7.71875 79.957 7.88281C79.4648 8.03906 79 8.28906 78.5625 8.63281C78.1328 8.97656 77.7578 9.39844 77.4375 9.89844C77.125 10.3906 76.875 10.9961 76.6875 11.7148C76.5 12.4258 76.4062 13.2109 76.4062 14.0703C76.4062 15.0391 76.5117 16.0625 76.7227 17.1406C76.9336 18.2188 77.25 19.2812 77.6719 20.3281C78.1016 21.375 78.6016 22.3203 79.1719 23.1641C79.75 24 80.4375 24.6797 81.2344 25.2031C82.0391 25.7188 82.8867 25.9766 83.7773 25.9766ZM94.5469 26V25.7656H96.8789V11.4805L93.5977 7.85938V7.8125H98.5547L110.508 20.5742V8.04688H108.211V7.8125H113.133V8.04688H110.801V26.7383H110.73L97.1719 11.7969V25.7656H99.4688V26H94.5469ZM121.477 26.3164C120.656 26.3164 119.855 26.207 119.074 25.9883C118.293 25.7695 117.684 25.5 117.246 25.1797L116.168 26.2344H116.027L115.113 19.0625H115.254C116.051 21.5547 116.953 23.3516 117.961 24.4531C118.969 25.5469 120.156 26.0938 121.523 26.0938C122.758 26.0938 123.75 25.7852 124.5 25.168C125.25 24.5508 125.625 23.7305 125.625 22.707C125.625 21.6914 125.293 20.8984 124.629 20.3281C123.973 19.75 122.977 19.2656 121.641 18.875L120.035 18.3945C118.473 17.9258 117.27 17.1836 116.426 16.168C115.582 15.1523 115.16 13.957 115.16 12.582C115.16 11.7461 115.34 10.9883 115.699 10.3086C116.059 9.62109 116.531 9.06641 117.117 8.64453C117.711 8.21484 118.367 7.88672 119.086 7.66016C119.812 7.42578 120.559 7.30859 121.324 7.30859C122.059 7.30859 122.781 7.41016 123.492 7.61328C124.203 7.81641 124.77 8.09766 125.191 8.45703L126.223 7.37891H126.363L127.254 14.0938H127.113C126.559 12.4531 125.98 11.1484 125.379 10.1797C124.777 9.21094 124.148 8.52734 123.492 8.12891C122.844 7.72266 122.098 7.51953 121.254 7.51953C120.262 7.51953 119.441 7.79297 118.793 8.33984C118.145 8.88672 117.82 9.62891 117.82 10.5664C117.82 11.4883 118.098 12.2422 118.652 12.8281C119.215 13.4062 120.043 13.8672 121.137 14.2109L122.719 14.7148C123.414 14.9414 124.031 15.1758 124.57 15.418C125.117 15.6602 125.637 15.9531 126.129 16.2969C126.621 16.6328 127.023 17.0039 127.336 17.4102C127.656 17.8086 127.91 18.2812 128.098 18.8281C128.285 19.3672 128.379 19.957 128.379 20.5977C128.379 21.7227 128.043 22.7305 127.371 23.6211C126.707 24.5039 125.852 25.1758 124.805 25.6367C123.766 26.0898 122.656 26.3164 121.477 26.3164ZM130.312 26V25.7656H132.492V8.04688H130.312V7.8125H144.352L145.477 13.4492H145.336L141.445 8.55078C141.266 8.33203 141.109 8.19531 140.977 8.14062C140.852 8.07812 140.641 8.04688 140.344 8.04688H136.453V16.5664H139.359C139.523 16.5664 139.641 16.5469 139.711 16.5078C139.781 16.4609 139.855 16.3516 139.934 16.1797L141.352 13.1328H141.492V20.2695H141.352L139.934 17.2109C139.855 17.0391 139.781 16.9297 139.711 16.8828C139.641 16.8359 139.523 16.8125 139.359 16.8125H136.453V25.7656H141.785C142.082 25.7656 142.301 25.7344 142.441 25.6719C142.59 25.6094 142.738 25.4805 142.887 25.2852L147.305 19.7305H147.445L145.793 26H130.312Z" fill="black"/>
<path d="M86.0568 39.2727H87.3182L90.2841 46.517H90.3864L93.3523 39.2727H94.6136V48H93.625V41.3693H93.5398L90.8125 48H89.858L87.1307 41.3693H87.0455V48H86.0568V39.2727ZM97.0906 48H95.9826L99.1871 39.2727H100.278L103.483 48H102.375L99.7667 40.6534H99.6985L97.0906 48ZM97.4996 44.5909H101.966V45.5284H97.4996V44.5909ZM110.398 42C110.304 41.7131 110.18 41.456 110.027 41.2287C109.876 40.9986 109.696 40.8026 109.486 40.6406C109.278 40.4787 109.043 40.3551 108.778 40.2699C108.514 40.1847 108.224 40.142 107.909 40.142C107.392 40.142 106.922 40.2756 106.499 40.5426C106.075 40.8097 105.739 41.2031 105.489 41.723C105.239 42.2429 105.114 42.8807 105.114 43.6364C105.114 44.392 105.24 45.0298 105.493 45.5497C105.746 46.0696 106.088 46.4631 106.52 46.7301C106.952 46.9972 107.438 47.1307 107.977 47.1307C108.477 47.1307 108.918 47.0241 109.298 46.8111C109.682 46.5952 109.98 46.2912 110.193 45.8991C110.409 45.5043 110.517 45.0398 110.517 44.5057L110.841 44.5739H108.216V43.6364H111.54V44.5739C111.54 45.2926 111.386 45.9176 111.08 46.4489C110.776 46.9801 110.355 47.392 109.818 47.6847C109.284 47.9744 108.67 48.1193 107.977 48.1193C107.205 48.1193 106.526 47.9375 105.94 47.5739C105.358 47.2102 104.903 46.6932 104.577 46.0227C104.253 45.3523 104.091 44.5568 104.091 43.6364C104.091 42.946 104.183 42.3253 104.368 41.7741C104.555 41.2202 104.82 40.7486 105.161 40.3594C105.501 39.9702 105.905 39.6719 106.371 39.4645C106.837 39.2571 107.349 39.1534 107.909 39.1534C108.369 39.1534 108.798 39.223 109.196 39.3622C109.597 39.4986 109.953 39.6932 110.266 39.946C110.581 40.196 110.844 40.4957 111.054 40.8452C111.264 41.1918 111.409 41.5767 111.489 42H110.398ZM113.438 48H112.33L115.535 39.2727H116.626L119.83 48H118.722L116.114 40.6534H116.046L113.438 48ZM113.847 44.5909H118.313V45.5284H113.847V44.5909ZM120.9 48V47.233L125.604 40.2102H120.849V39.2727H126.866V40.0398L122.161 47.0625H126.917V48H120.9ZM129.746 39.2727V48H128.69V39.2727H129.746ZM138.786 39.2727V48H137.763L133.007 41.1477H132.922V48H131.865V39.2727H132.888L137.661 46.142H137.746V39.2727H138.786ZM140.901 48V39.2727H146.168V40.2102H141.957V43.1591H145.895V44.0966H141.957V47.0625H146.236V48H140.901Z" fill="black"/>
</svg>
