<svg width="116" height="20" viewBox="0 0 116 20" fill="none" xmlns="http://www.w3.org/2000/svg">
<g clip-path="url(#clip0_814_7259)">
<path d="M23.94 8.41277H21.072C20.28 8.41277 19.482 8.68127 18.87 9.1407C18.258 9.59416 8.508 16.8257 8.508 16.8257V7.76838C8.508 7.50585 8.628 7.26122 8.838 7.10609L11.358 5.20872V5.67411C11.358 6.04404 11.184 6.3901 10.89 6.61087L9.24 7.85788C9.216 7.87578 9.198 7.90561 9.198 7.94141V10.8949C9.198 10.9486 9.258 10.9784 9.3 10.9486L12.768 8.36504C13.638 7.72065 14.148 6.70633 14.148 5.62638V0.0655204C14.148 0.0118211 14.088 -0.0180118 14.046 0.0118211L6.558 5.57865C5.982 6.00824 5.64 6.68246 5.64 7.39249V10.4891L5.07 10.0655L3.21 8.68127C2.97 8.49631 2.832 8.20991 2.832 7.90561V7.35072L4.872 8.86623C4.914 8.89607 4.974 8.86623 4.974 8.8185V6.75406C4.974 6.12757 4.674 5.53091 4.17 5.15502L0.102 2.14189C0.06 2.10609 0 2.13593 0 2.18963V7.15979V8.45454C0 9.09893 0.306 9.70752 0.822 10.0894L5.64 13.6753V14.7016L0.108 10.5727C0.066 10.5428 0 10.5727 0 10.6264V12.4044C0 13.2039 0.378 13.9617 1.026 14.439L8.508 19.9999L23.976 8.52017C24.024 8.48437 24 8.41277 23.94 8.41277ZM12.852 9.39129C13.674 8.77674 14.724 8.41874 15.78 8.41277H18.258C18.318 8.41277 18.342 8.49034 18.294 8.52614L9.3 15.2087C9.258 15.2385 9.198 15.2087 9.198 15.155V12.1121C9.198 12.1121 12.03 9.99989 12.852 9.39129Z" fill="#000004"/>
</g>
<path d="M37.7692 6.71023C37.7237 6.25189 37.5286 5.89583 37.1839 5.64205C36.8393 5.38826 36.3714 5.26136 35.7805 5.26136C35.379 5.26136 35.04 5.31818 34.7635 5.43182C34.487 5.54167 34.2749 5.69508 34.1271 5.89205C33.9832 6.08902 33.9112 6.3125 33.9112 6.5625C33.9036 6.77083 33.9472 6.95265 34.0419 7.10795C34.1404 7.26326 34.2749 7.39773 34.4453 7.51136C34.6158 7.62121 34.8127 7.7178 35.0362 7.80114C35.2597 7.88068 35.4983 7.94886 35.7521 8.00568L36.7976 8.25568C37.3052 8.36932 37.7711 8.52083 38.1953 8.71023C38.6196 8.89962 38.987 9.13258 39.2976 9.40909C39.6082 9.68561 39.8487 10.0114 40.0192 10.3864C40.1934 10.7614 40.2824 11.1913 40.2862 11.6761C40.2824 12.3883 40.1006 13.0057 39.7408 13.5284C39.3847 14.0473 38.8696 14.4508 38.1953 14.7386C37.5249 15.0227 36.7161 15.1648 35.7692 15.1648C34.8298 15.1648 34.0116 15.0208 33.3146 14.733C32.6214 14.4451 32.0798 14.0189 31.6896 13.4545C31.3033 12.8864 31.1006 12.1837 31.0817 11.3466H33.4624C33.4889 11.7367 33.6006 12.0625 33.7976 12.3239C33.9983 12.5814 34.2654 12.7765 34.5987 12.9091C34.9358 13.0379 35.3165 13.1023 35.7408 13.1023C36.1574 13.1023 36.5192 13.0417 36.826 12.9205C37.1366 12.7992 37.3771 12.6307 37.5476 12.4148C37.718 12.1989 37.8033 11.9508 37.8033 11.6705C37.8033 11.4091 37.7256 11.1894 37.5703 11.0114C37.4188 10.8333 37.1953 10.6818 36.8999 10.5568C36.6082 10.4318 36.2502 10.3182 35.826 10.2159L34.5589 9.89773C33.5779 9.65909 32.8033 9.28598 32.2351 8.77841C31.6669 8.27083 31.3847 7.58712 31.3885 6.72727C31.3847 6.02273 31.5722 5.4072 31.951 4.88068C32.3336 4.35417 32.8582 3.94318 33.5249 3.64773C34.1915 3.35227 34.9491 3.20455 35.7976 3.20455C36.6612 3.20455 37.415 3.35227 38.0589 3.64773C38.7067 3.94318 39.2105 4.35417 39.5703 4.88068C39.9302 5.4072 40.1158 6.01705 40.1271 6.71023H37.7692ZM41.9411 15V3.36364H46.532C47.4145 3.36364 48.1664 3.5322 48.7876 3.86932C49.4089 4.20265 49.8823 4.66667 50.2081 5.26136C50.5376 5.85227 50.7024 6.53409 50.7024 7.30682C50.7024 8.07955 50.5357 8.76136 50.2024 9.35227C49.8691 9.94318 49.3861 10.4034 48.7536 10.733C48.1248 11.0625 47.3634 11.2273 46.4695 11.2273H43.5433V9.25568H46.0717C46.5452 9.25568 46.9354 9.17424 47.2422 9.01136C47.5528 8.8447 47.7839 8.61553 47.9354 8.32386C48.0907 8.02841 48.1683 7.68939 48.1683 7.30682C48.1683 6.92045 48.0907 6.58333 47.9354 6.29545C47.7839 6.00379 47.5528 5.77841 47.2422 5.61932C46.9316 5.45644 46.5376 5.375 46.0604 5.375H44.4013V15H41.9411ZM59.4879 3.36364H61.9482V10.9205C61.9482 11.7689 61.7455 12.5114 61.3402 13.1477C60.9387 13.7841 60.3762 14.2803 59.6527 14.6364C58.9292 14.9886 58.0864 15.1648 57.1243 15.1648C56.1584 15.1648 55.3137 14.9886 54.5902 14.6364C53.8667 14.2803 53.3042 13.7841 52.9027 13.1477C52.5012 12.5114 52.3004 11.7689 52.3004 10.9205V3.36364H54.7607V10.7102C54.7607 11.1534 54.8572 11.5473 55.0504 11.892C55.2474 12.2367 55.5239 12.5076 55.88 12.7045C56.236 12.9015 56.6508 13 57.1243 13C57.6016 13 58.0163 12.9015 58.3686 12.7045C58.7247 12.5076 58.9993 12.2367 59.1925 11.892C59.3894 11.5473 59.4879 11.1534 59.4879 10.7102V3.36364ZM67.6754 15V3.36364H70.1357V8.16477H75.13V3.36364H77.5845V15H75.13V10.1932H70.1357V15H67.6754ZM90.3061 9.18182C90.3061 10.4508 90.0656 11.5303 89.5845 12.4205C89.1072 13.3106 88.4557 13.9905 87.63 14.4602C86.808 14.9261 85.8838 15.1591 84.8572 15.1591C83.8232 15.1591 82.8951 14.9242 82.0732 14.4545C81.2512 13.9848 80.6016 13.3049 80.1243 12.4148C79.647 11.5246 79.4084 10.447 79.4084 9.18182C79.4084 7.91288 79.647 6.83333 80.1243 5.94318C80.6016 5.05303 81.2512 4.375 82.0732 3.90909C82.8951 3.43939 83.8232 3.20455 84.8572 3.20455C85.8838 3.20455 86.808 3.43939 87.63 3.90909C88.4557 4.375 89.1072 5.05303 89.5845 5.94318C90.0656 6.83333 90.3061 7.91288 90.3061 9.18182ZM87.8118 9.18182C87.8118 8.35985 87.6887 7.66667 87.4425 7.10227C87.2 6.53788 86.8572 6.10985 86.4141 5.81818C85.9709 5.52652 85.4519 5.38068 84.8572 5.38068C84.2625 5.38068 83.7436 5.52652 83.3004 5.81818C82.8572 6.10985 82.5125 6.53788 82.2663 7.10227C82.0239 7.66667 81.9027 8.35985 81.9027 9.18182C81.9027 10.0038 82.0239 10.697 82.2663 11.2614C82.5125 11.8258 82.8572 12.2538 83.3004 12.5455C83.7436 12.8371 84.2625 12.983 84.8572 12.983C85.4519 12.983 85.9709 12.8371 86.4141 12.5455C86.8572 12.2538 87.2 11.8258 87.4425 11.2614C87.6887 10.697 87.8118 10.0038 87.8118 9.18182ZM92.1286 3.36364H95.1626L98.3672 11.1818H98.5036L101.708 3.36364H104.742V15H102.356V7.42614H102.259L99.2479 14.9432H97.6229L94.6115 7.39773H94.5149V15H92.1286V3.36364ZM106.769 15V3.36364H114.61V5.39205H109.229V8.16477H114.207V10.1932H109.229V12.9716H114.633V15H106.769Z" fill="black"/>
<defs>
<clipPath id="clip0_814_7259">
<rect width="24" height="20" fill="white"/>
</clipPath>
</defs>
</svg>
