<svg width="160" height="40" viewBox="0 0 160 40" fill="none" xmlns="http://www.w3.org/2000/svg">
<g clip-path="url(#clip0_814_7277)">
<path d="M35.91 17.6192H31.608C30.42 17.6192 29.223 18.0219 28.305 18.711C27.387 19.3912 12.762 30.2385 12.762 30.2385V16.6526C12.762 16.2588 12.942 15.8918 13.257 15.6591L17.037 12.8131V13.5112C17.037 14.0661 16.776 14.5852 16.335 14.9163L13.86 16.7868C13.824 16.8137 13.797 16.8584 13.797 16.9121V21.3423C13.797 21.4229 13.887 21.4676 13.95 21.4229L19.152 17.5476C20.457 16.581 21.222 15.0595 21.222 13.4396V5.09828C21.222 5.01773 21.132 4.97298 21.069 5.01773L9.837 13.368C8.973 14.0124 8.46 15.0237 8.46 16.0887V20.7337L7.605 20.0983L4.815 18.0219C4.455 17.7445 4.248 17.3149 4.248 16.8584V16.0261L7.308 18.2994C7.371 18.3441 7.461 18.2994 7.461 18.2278V15.1311C7.461 14.1914 7.011 13.2964 6.255 12.7325L0.153 8.21284C0.09 8.15914 0 8.20389 0 8.28444V15.7397V17.6818C0 18.6484 0.459 19.5613 1.233 20.1341L8.46 25.513V27.0523L0.162 20.859C0.099 20.8143 0 20.859 0 20.9396V23.6066C0 24.8059 0.567 25.9425 1.539 26.6585L12.762 34.9998L35.964 17.7803C36.036 17.7266 36 17.6192 35.91 17.6192ZM19.278 19.0869C20.511 18.1651 22.086 17.6281 23.67 17.6192H27.387C27.477 17.6192 27.513 17.7355 27.441 17.7892L13.95 27.8131C13.887 27.8578 13.797 27.8131 13.797 27.7325V23.1681C13.797 23.1681 18.045 19.9998 19.278 19.0869Z" fill="#000004"/>
</g>
<line x1="48.75" y1="0.5" x2="48.75" y2="39.5" stroke="black" stroke-width="1.5"/>
<g clip-path="url(#clip1_814_7277)">
<path d="M81.2244 15.0918H79.7141V19.7709H81.2648C81.9525 19.7709 82.4919 19.5821 82.8829 19.191C83.274 18.8 83.4628 18.2202 83.4628 17.4381C83.4628 16.656 83.2605 16.0762 82.8694 15.6851C82.4784 15.2941 81.9255 15.1053 81.2244 15.1053" fill="#000004"/>
<path d="M150.022 26.0272C149.388 26.607 148.511 26.8902 147.419 26.8902C146.785 26.8902 146.219 26.7418 145.734 26.4452C145.235 26.1485 144.844 25.7305 144.547 25.2046C144.25 24.6787 144.088 24.0585 144.048 23.3438L146.192 23.0471C146.246 23.6809 146.381 24.1663 146.624 24.49C146.866 24.8136 147.176 24.9754 147.567 24.9754C147.958 24.9754 148.269 24.881 148.498 24.6787C148.741 24.4765 148.848 24.1933 148.848 23.8157C148.848 23.3842 148.714 22.9797 148.444 22.5887C148.174 22.1976 147.77 21.7931 147.244 21.3616C146.516 20.7818 145.949 20.2694 145.531 19.8513C145.113 19.4198 144.803 18.9749 144.587 18.5029C144.372 18.031 144.264 17.5185 144.264 16.9387C144.264 15.9274 144.56 15.1318 145.167 14.579C145.774 14.0261 146.624 13.7429 147.729 13.7429C148.619 13.7429 149.334 14.0126 149.873 14.552C150.413 15.0914 150.75 15.86 150.871 16.8443L148.727 17.0736C148.687 16.6151 148.565 16.2645 148.35 16.0218C148.134 15.7791 147.864 15.6577 147.527 15.6577C147.163 15.6577 146.88 15.7656 146.691 15.9813C146.502 16.1971 146.394 16.5072 146.394 16.8983C146.394 17.2893 146.516 17.6534 146.772 18.004C147.028 18.3681 147.433 18.7591 147.985 19.2041C148.821 19.8513 149.455 20.4447 149.887 20.9571C150.318 21.4695 150.601 21.9414 150.75 22.3325C150.898 22.7235 150.965 23.155 150.965 23.6135C150.965 24.6383 150.642 25.4473 150.008 26.0272M142.996 26.7149H136.699V13.9182H142.74V15.833H138.951V19.1367H141.864V21.0514H138.951V24.8136H142.983V26.7284L142.996 26.7149ZM134.164 26.7149H131.912V13.9182H134.164V26.7149ZM127.691 26.7149L126.087 21.4155C125.79 21.456 125.413 21.4695 124.927 21.4695V26.7149H122.675V13.9182H125.925C127.179 13.9182 128.109 14.2149 128.73 14.8082C129.35 15.4015 129.66 16.3589 129.66 17.6938C129.66 19.3659 129.134 20.4312 128.083 20.9166L129.997 26.7149H127.705H127.691ZM120.666 23.6674C120.666 24.6113 120.369 25.3934 119.763 25.9867C119.169 26.5935 118.306 26.8902 117.214 26.8902C116.122 26.8902 115.259 26.5935 114.652 25.9867C114.059 25.3799 113.749 24.6113 113.749 23.6674V16.9792C113.749 16.0218 114.045 15.2397 114.652 14.6329C115.259 14.0261 116.108 13.7294 117.201 13.7294C118.293 13.7294 119.142 14.0261 119.749 14.6194C120.356 15.2127 120.653 15.9948 120.653 16.9522V23.6539L120.666 23.6674ZM112.616 15.833H110.431V26.7149H108.18V15.833H105.995V13.9182H112.616V15.833ZM103.865 26.0272C103.231 26.607 102.354 26.8902 101.249 26.8902C100.615 26.8902 100.062 26.7418 99.5631 26.4452C99.0642 26.1485 98.6731 25.7305 98.3765 25.2046C98.0798 24.6787 97.918 24.0585 97.8776 23.3438L100.022 23.0471C100.076 23.6809 100.21 24.1663 100.453 24.49C100.682 24.8136 101.006 24.9754 101.383 24.9754C101.761 24.9754 102.085 24.881 102.314 24.6787C102.543 24.4765 102.665 24.1933 102.665 23.8157C102.665 23.3842 102.53 22.9797 102.26 22.5887C101.99 22.1976 101.599 21.7931 101.06 21.3616C100.332 20.7818 99.7519 20.2694 99.3474 19.8513C98.9293 19.4198 98.6192 18.9749 98.4035 18.5029C98.1877 18.031 98.0798 17.5185 98.0798 16.9387C98.0798 15.9274 98.3765 15.1318 98.9833 14.579C99.5901 14.0261 100.44 13.7429 101.545 13.7429C102.435 13.7429 103.15 14.0126 103.689 14.552C104.229 15.0914 104.566 15.86 104.687 16.8443L102.543 17.0736C102.503 16.6151 102.381 16.2645 102.166 16.0218C101.95 15.7791 101.68 15.6577 101.343 15.6577C100.979 15.6577 100.696 15.7656 100.507 15.9813C100.318 16.1971 100.21 16.5072 100.21 16.8983C100.21 17.2893 100.332 17.6534 100.588 18.004C100.844 18.3681 101.249 18.7591 101.802 19.2041C102.638 19.8513 103.271 20.4447 103.703 20.9571C104.134 21.483 104.417 21.9414 104.566 22.3325C104.714 22.7235 104.782 23.155 104.782 23.6135C104.782 24.6383 104.458 25.4473 103.824 26.0272M93.3603 23.4247C93.3603 24.5034 93.0771 25.353 92.4973 25.9732C91.931 26.5935 91.0949 26.9037 90.0027 26.9037C88.9105 26.9037 88.0879 26.5935 87.5081 25.9867C86.9417 25.3664 86.6586 24.5169 86.6586 23.4382V13.9182H88.0744V23.3842C88.0744 24.9484 88.7217 25.7305 90.0027 25.7305C91.2837 25.7305 91.931 24.9484 91.931 23.3842V13.9182H93.3468V23.4247H93.3603ZM84.3662 19.3389C84.0561 19.8513 83.6381 20.2559 83.1257 20.5256C82.5998 20.8087 82.0334 20.9436 81.4132 20.9436H79.6737V26.7284H78.2578V13.9182H81.3997C82.4245 13.9182 83.2605 14.2418 83.8943 14.8756C84.528 15.5094 84.8382 16.3993 84.8382 17.532C84.8382 18.2197 84.6899 18.813 84.3797 19.3389M75.4126 26.0541C74.8193 26.6205 73.9968 26.9037 72.945 26.9037C71.9471 26.9037 71.1516 26.58 70.5448 25.9328C69.938 25.2855 69.6278 24.4091 69.6009 23.2764H70.9088C70.9088 24.0719 71.1111 24.6787 71.4887 25.0968C71.8662 25.5148 72.3921 25.7305 73.0663 25.7305C73.6597 25.7305 74.1316 25.5417 74.4822 25.1777C74.8328 24.8136 75.0081 24.3012 75.0081 23.6404C75.0081 23.128 74.8463 22.6696 74.5227 22.2381C74.199 21.8066 73.7001 21.3751 73.0259 20.9031C72.2303 20.3637 71.61 19.9053 71.192 19.5682C70.774 19.2176 70.4234 18.813 70.1402 18.3411C69.8706 17.8691 69.7357 17.3298 69.7357 16.723C69.7357 15.833 70.0324 15.1183 70.6122 14.5655C71.192 14.0126 71.9606 13.7429 72.9045 13.7429C73.8484 13.7429 74.6305 14.0396 75.1969 14.6464C75.7632 15.2532 76.0868 16.1027 76.1408 17.2219H74.8328C74.6845 15.6847 74.0102 14.9161 72.8101 14.9161C72.2708 14.9161 71.8393 15.0779 71.5156 15.388C71.1785 15.6982 71.0167 16.1027 71.0167 16.6016C71.0167 17.1005 71.1785 17.532 71.5022 17.95C71.8258 18.3681 72.3382 18.7996 73.0394 19.2445C73.781 19.703 74.3743 20.1345 74.8328 20.5256C75.2913 20.9166 75.6419 21.3751 75.9115 21.8875C76.1812 22.3999 76.3026 22.9797 76.3026 23.6404C76.3026 24.6787 76.0059 25.4878 75.4261 26.0541M153.946 5.36914H66.0545C62.7104 5.36914 60 8.01207 60 11.2753V34.6302H153.946C157.29 34.6302 160 31.9873 160 28.7241V11.2753C160 8.01207 157.29 5.36914 153.946 5.36914Z" fill="#000004"/>
<path d="M117.228 15.6582C116.809 15.6582 116.513 15.7661 116.311 15.9683C116.122 16.1706 116.014 16.5212 116.014 17.0066V23.6275C116.014 24.0994 116.108 24.45 116.297 24.6658C116.486 24.8815 116.796 24.9894 117.214 24.9894C117.659 24.9894 117.969 24.868 118.144 24.6388C118.32 24.4096 118.414 24.0724 118.414 23.614V17.0201C118.414 16.5886 118.333 16.2515 118.171 16.0088C118.01 15.7661 117.686 15.6582 117.214 15.6582" fill="#000004"/>
<path d="M125.709 15.7246H124.941V19.662H125.79C126.397 19.662 126.815 19.5272 127.058 19.2305C127.3 18.9474 127.408 18.435 127.408 17.6933C127.408 16.9517 127.287 16.4393 127.044 16.1561C126.802 15.8729 126.357 15.7246 125.696 15.7246" fill="#000004"/>
</g>
<defs>
<clipPath id="clip0_814_7277">
<rect width="36" height="30" fill="white" transform="translate(0 5)"/>
</clipPath>
<clipPath id="clip1_814_7277">
<rect width="100" height="29.2611" fill="white" transform="translate(60 5.36914)"/>
</clipPath>
</defs>
</svg>
